<?xml version="1.0" encoding="utf-8"?>
<!-- Generator: Adobe Illustrator 19.2.1, SVG Export Plug-In . SVG Version: 6.00 Build 0)  -->
<svg version="1.1" id="レイヤー_1" xmlns="http://www.w3.org/2000/svg" xmlns:xlink="http://www.w3.org/1999/xlink" x="0px"
	 y="0px" viewBox="0 0 64 69" style="enable-background:new 0 0 64 69;" xml:space="preserve">
<style type="text/css">
	.st0{fill:#FF9900;}
</style>
<title>webserviceiconset-box-none-type</title>
<image style="overflow:visible;" width="136" height="141" xlink:href="79324719FFF88690.png"  transform="matrix(1 0 0 1 -36 -36)">
</image>
<g>
	<polygon class="st0" points="58,59 58,58 58,57 57,57 56,57 55,57 54,57 54,58 53,58 52,58 52,59 51,59 50,59 50,60 49,60 48,60 
		47,60 47,61 46,61 45,61 44,61 44,62 43,62 42,62 41,62 40,62 40,63 39,63 38,63 37,63 36,63 35,63 34,63 33,63 32,63 31,63 30,63 
		29,63 28,63 27,63 26,63 26,62 25,62 24,62 23,62 22,62 21,62 21,61 20,61 19,61 18,61 17,61 17,60 16,60 15,60 15,59 14,59 13,59 
		12,59 12,58 11,58 10,58 10,57 9,57 8,57 8,56 7,56 6,56 6,55 5,55 5,54 4,54 3,54 3,53 2,53 2,52 1,52 0,52 0,53 0,54 0,55 1,55 
		1,56 2,56 2,57 3,57 3,58 4,58 4,59 5,59 5,60 6,60 6,61 7,61 7,62 8,62 9,62 9,63 10,63 10,64 11,64 12,64 12,65 13,65 14,65 
		14,66 15,66 16,66 16,67 17,67 18,67 19,67 19,68 20,68 21,68 22,68 23,68 23,69 24,69 25,69 26,69 27,69 28,69 29,69 30,69 31,69 
		32,69 33,69 34,69 35,69 36,69 37,69 38,69 39,69 40,69 40,68 41,68 42,68 43,68 44,68 44,67 45,67 46,67 47,67 47,66 48,66 49,66 
		49,65 50,65 51,65 51,64 52,64 52,63 53,63 54,63 54,62 55,62 55,61 56,61 57,61 57,60 58,60 	"/>
	<polygon class="st0" points="63,52 62,52 61,52 61,51 60,51 59,51 58,51 57,51 57,52 56,52 55,52 54,52 53,52 53,53 52,53 51,53 
		51,54 51,55 51,56 52,56 53,56 53,55 54,55 55,55 56,55 57,55 58,55 59,55 59,56 60,56 60,57 60,58 60,59 59,59 59,60 59,61 58,61 
		58,62 58,63 58,64 59,64 60,64 61,64 61,63 62,63 62,62 62,61 63,61 63,60 63,59 64,59 64,58 64,57 64,56 64,55 64,54 64,53 64,52 
			"/>
	<path class="st0" d="M11,44v1v1h1v1h1v1v1h1v1h1h1v1h1v1h1h1h1h1v1h1h1h1h1h1h1v-1h1h1h1h1v-1h1h1v-1h1h1v-1h1h1v-1h1v-1h1h1v1v1h1
		v1h1v1h1v1h1h1h1h1v-1h1v-1h1v-1h1h1v-1h1v-1h1v-1h1v-1v-1v-1h-1v-1h-1v-1v-1h-1v-1h-1v-1v-1v-1v-1v-1v-1v-1v-1v-1v-1v-1v-1v-1v-1
		v-1v-1v-1v-1v-1v-1v-1v-1v-1v-1v-1v-1v-1v-1h-1v-1V9V8h-1V7h-1V6V5h-1V4h-1h-1V3h-1V2h-1h-1h-1V1h-1h-1h-1h-1h-1h-1V0h-1h-1h-1h-1
		v1h-1h-1h-1h-1h-1h-1h-1v1h-1h-1h-1v1h-1v1h-1h-1v1h-1v1h-1v1h-1v1v1h-1v1v1h-1v1v1v1v1v1v1h1h1h1h1h1h1h1v1h1h1h1h1v-1h1v-1v-1h1
		v-1h1v-1v-1h1h1v-1h1h1h1h1h1v1h1h1v1v1h1v1v1v1v1v1v1h-1h-1h-1h-1h-1h-1v1h-1h-1h-1h-1h-1h-1v1h-1h-1h-1v1h-1h-1v1h-1h-1v1h-1h-1
		v1h-1v1h-1v1v1h-1v1h-1v1v1v1h-1v1v1v1v1v1v1v1v1v1v1h1V44z M32,41v1h-1h-1v1h-1v-1h-1h-1v-1h-1v-1h-1v-1v-1h-1v-1v-1h1v-1v-1v-1h1
		v-1v-1h1h1v-1h1h1v-1h1h1h1v-1h1h1h1h1v1v1v1v1v1v1v1h-1v1v1v1h-1v1v1h-1v1h-1H32z"/>
</g>
</svg>
