<?xml version="1.0" encoding="utf-8"?>
<!-- Generator: Adobe Illustrator 19.2.1, SVG Export Plug-In . SVG Version: 6.00 Build 0)  -->
<svg version="1.1" id="レイヤー_1" xmlns="http://www.w3.org/2000/svg" xmlns:xlink="http://www.w3.org/1999/xlink" x="0px"
	 y="0px" viewBox="0 0 67 67" style="enable-background:new 0 0 67 67;" xml:space="preserve">
<style type="text/css">
	.st0{fill:#3F729B;}
</style>
<title>webserviceiconset-box-none-type</title>
<image style="overflow:visible;" width="139" height="139" xlink:href="14D8B4ED8D65B166.png"  transform="matrix(1 0 0 1 -36 -36)">
</image>
<g>
	<polygon class="st0" points="65,25 64,25 63,25 62,25 61,25 60,25 59,25 58,25 57,25 56,25 55,25 54,25 53,25 52,25 51,25 50,25 
		49,25 48,25 47,25 47,26 47,27 48,27 48,28 48,29 49,29 49,30 49,31 49,32 50,32 50,33 50,34 50,35 50,36 50,37 50,38 49,38 49,39 
		49,40 49,41 48,41 48,42 48,43 47,43 47,44 46,44 46,45 46,46 45,46 45,47 44,47 44,48 43,48 42,48 42,49 41,49 40,49 40,50 39,50 
		38,50 38,51 37,51 36,51 35,51 34,51 33,51 32,51 31,51 30,51 29,51 29,50 28,50 27,50 26,50 26,49 25,49 25,48 24,48 23,48 23,47 
		22,47 22,46 21,46 21,45 20,45 20,44 20,43 19,43 19,42 19,41 18,41 18,40 18,39 18,38 17,38 17,37 17,36 17,35 17,34 17,33 17,32 
		18,32 18,31 18,30 18,29 18,28 19,28 19,27 20,27 20,26 20,25 19,25 18,25 17,25 16,25 15,25 14,25 13,25 12,25 11,25 10,25 9,25 
		8,25 7,25 6,25 5,25 4,25 3,25 2,25 1,25 0,25 0,26 0,27 0,28 0,29 0,30 0,31 0,32 0,33 0,34 0,35 0,36 0,37 0,38 0,39 0,40 0,41 
		0,42 0,43 0,44 0,45 0,46 0,47 0,48 0,49 0,50 0,51 0,52 0,53 0,54 0,55 0,56 0,57 0,58 0,59 1,59 1,60 1,61 2,61 2,62 3,62 3,63 
		4,63 4,64 5,64 5,65 6,65 7,65 7,66 8,66 9,66 9,67 10,67 11,67 12,67 13,67 14,67 15,67 16,67 17,67 18,67 19,67 20,67 21,67 
		22,67 23,67 24,67 25,67 26,67 27,67 28,67 29,67 30,67 31,67 32,67 33,67 34,67 35,67 36,67 37,67 38,67 39,67 40,67 41,67 42,67 
		43,67 44,67 45,67 46,67 47,67 48,67 49,67 50,67 51,67 52,67 53,67 54,67 55,67 56,67 57,67 58,67 58,66 59,66 60,66 60,65 61,65 
		62,65 62,64 63,64 63,63 64,63 64,62 64,61 65,61 65,60 66,60 66,59 66,58 66,57 67,57 67,56 67,55 67,54 67,53 67,52 67,51 67,50 
		67,49 67,48 67,47 67,46 67,45 67,44 67,43 67,42 67,41 67,40 67,39 67,38 67,37 67,36 67,35 67,34 67,33 67,32 67,31 67,30 67,29 
		67,28 67,27 67,26 67,25 66,25 	"/>
	<path class="st0" d="M38,22h-1h-1h-1h-1h-1h-1h-1h-1h-1h-1v1h-1h-1v1h-1v1h-1v1h-1v1h-1v1v1h-1v1v1v1h-1v1v1v1v1v1v1h1v1v1v1h1v1v1
		h1v1h1v1h1v1h1h1v1h1h1v1h1h1h1h1h1h1h1h1h1v-1h1h1v-1h1h1v-1h1v-1h1v-1v-1h1v-1h1v-1v-1v-1v-1h1v-1v-1v-1v-1v-1h-1v-1v-1v-1h-1v-1
		v-1h-1v-1h-1v-1h-1v-1h-1v-1h-1h-1v-1H38z M43,33v1v1v1v1v1h-1v1v1h-1v1h-1v1h-1v1h-1h-1v1h-1h-1h-1h-1h-1h-1h-1v-1h-1h-1v-1h-1v-1
		h-1v-1h-1v-1v-1h-1v-1v-1v-1v-1v-1v-1h1v-1v-1h1v-1v-1h1v-1h1h1v-1h1h1v-1h1h1h1h1h1v1h1h1v1h1v1h1h1v1v1h1v1v1h1V33z"/>
	<path class="st0" d="M66,11v-1V9V8h-1V7h-1V6V5h-1V4h-1V3h-1V2h-1h-1V1h-1h-1h-1V0h-1h-1h-1h-1h-1h-1h-1h-1h-1h-1h-1h-1h-1h-1h-1
		h-1h-1h-1h-1h-1h-1h-1h-1h-1h-1h-1h-1h-1h-1h-1h-1h-1h-1h-1h-1h-1h-1h-1h-1v1v1v1v1v1v1v1v1v1v1v1v1v1v1v1v1v1v1h-1v-1v-1v-1v-1v-1
		v-1v-1v-1V9V8V7V6V5V4V3V2V1V0h-1h-1h-1v1v1v1v1v1v1v1v1v1v1v1v1v1v1v1v1v1v1h-1v-1v-1v-1v-1v-1v-1v-1v-1V9V8V7V6V5V4V3V2V1V0h-1
		h-1v1H9v1v1v1v1v1v1v1v1v1v1v1v1v1v1v1v1v1H8v-1v-1v-1v-1v-1v-1v-1v-1V9V8V7V6V5V4V3V2H7H6v1H5v1H4v1H3v1H2v1H1v1v1H0v1v1v1v1v1v1
		v1v1v1v1v1v1v1v1h1h1h1h1h1h1h1h1h1h1h1h1h1h1h1h1h1h1h1h1h1h1h1v-1h1v-1h1h1v-1h1h1v-1h1h1h1h1h1h1h1h1h1h1h1v1h1h1v1h1v1h1h1v1h1
		h1h1h1h1h1h1h1h1h1h1h1h1h1h1h1h1h1h1h1h1h1h1v-1v-1v-1v-1v-1v-1v-1v-1v-1v-1v-1v-1H66z M49,17v-1h-1v-1v-1v-1v-1v-1v-1V9h1V8V7h1
		h1h1h1h1h1h1h1h1h1v1v1h1v1v1v1v1v1v1v1h-1v1h-1v1h-1h-1h-1h-1h-1h-1h-1h-1v-1H49z"/>
</g>
</svg>
