<?xml version="1.0" encoding="utf-8"?>
<!-- Generator: Adobe Illustrator 19.2.1, SVG Export Plug-In . SVG Version: 6.00 Build 0)  -->
<svg version="1.1" id="レイヤー_1" xmlns="http://www.w3.org/2000/svg" xmlns:xlink="http://www.w3.org/1999/xlink" x="0px"
	 y="0px" viewBox="0 0 76 73" style="enable-background:new 0 0 76 73;" xml:space="preserve">
<style type="text/css">
	.st0{fill:#00C300;}
</style>
<title>webserviceiconset-box-none-type</title>
<image style="overflow:visible;" width="148" height="146" xlink:href="38B7583E4B3E0B0D.png"  transform="matrix(1 0 0 1 -36 -36)">
</image>
<path class="st0" d="M75,26v-1v-1v-1h-1v-1v-1v-1h-1v-1v-1h-1v-1h-1v-1v-1h-1v-1h-1v-1h-1v-1h-1v-1h-1v-1h-1V9h-1V8h-1h-1V7h-1V6h-1
	h-1V5h-1h-1V4h-1h-1V3h-1h-1h-1V2h-1h-1h-1h-1V1h-1h-1h-1h-1h-1h-1h-1h-1V0h-1h-1h-1h-1v1h-1h-1h-1h-1h-1h-1h-1h-1h-1v1h-1h-1h-1v1
	h-1h-1h-1v1h-1h-1h-1v1h-1h-1v1h-1v1h-1h-1v1h-1v1h-1h-1v1H9v1H8v1H7v1H6v1H5v1v1H4v1H3v1v1H2v1v1H1v1v1v1H0v1v1v1v1v1v1v1v1v1v1v1
	v1v1v1v1h1v1v1v1h1v1v1h1v1v1h1v1h1v1v1h1v1h1v1h1v1h1v1h1v1h1h1v1h1v1h1h1v1h1h1v1h1h1v1h1h1v1h1h1h1h1v1h1h1h1h1h1v1h1h1h1v1h1v1
	h1v1v1h-1v1v1v1v1v1v1v1h1h1h1h1h1v-1h1h1v-1h1h1v-1h1v-1h1h1v-1h1h1v-1h1v-1h1h1v-1h1v-1h1h1v-1h1v-1h1v-1h1h1v-1h1v-1h1v-1h1v-1h1
	v-1h1v-1h1v-1h1h1v-1h1v-1h1v-1v-1h1v-1h1v-1h1v-1v-1h1v-1h1v-1v-1h1v-1v-1v-1h1v-1v-1v-1h1v-1v-1v-1v-1v-1v-1v-1v-1v-1v-1v-1H75z
	 M15,24v-1h1h1v1h1v1v1v1v1v1v1v1v1v1v1v1v1v1h1h1h1h1h1h1h1v1v1v1h-1h-1h-1h-1h-1h-1h-1h-1h-1h-1v-1v-1v-1v-1v-1v-1v-1v-1v-1v-1v-1
	v-1v-1v-1v-1V24z M48,25v1v1v1v1v1v1v1v1v1v1v1v1v1v1v1h-1v1h-1h-1v-1v-1h-1v-1h-1v-1h-1v-1v-1h-1v-1h-1v-1h-1v-1v-1h-1v1v1v1v1v1v1
	v1v1v1h-1v1h-1h-1v-1v-1v-1v-1v-1v-1v-1v-1v-1v-1v-1v-1v-1v-1v-1v-1v-1v-1h1h1v1h1v1v1h1v1h1v1v1h1v1v1h1v1h1v1v1h1v1h1v-1v-1v-1v-1
	v-1v-1v-1v-1v-1v-1v-1h1v-1h1v1h1V25z M28,39v-1v-1v-1v-1v-1v-1v-1v-1v-1v-1v-1v-1v-1v-1v-1h1v-1h1v1h1v1v1v1v1v1v1v1v1v1v1v1v1v1v1
	v1v1v1h-1h-1v-1h-1V39z M60,40h-1h-1h-1h-1h-1h-1h-1h-1v-1h-1v-1v-1v-1v-1v-1v-1v-1v-1v-1v-1v-1v-1v-1v-1v-1h1v-1h1h1h1h1h1h1h1h1h1
	v1v1h-1v1h-1h-1h-1h-1h-1h-1v1v1v1v1h1h1h1h1h1h1h1v1v1v1h-1h-1h-1h-1h-1h-1h-1v1v1v1v1h1h1h1h1h1h1h1v1v1v1H60z"/>
</svg>
