<?xml version="1.0" encoding="utf-8"?>
<!-- Generator: Adobe Illustrator 19.2.1, SVG Export Plug-In . SVG Version: 6.00 Build 0)  -->
<svg version="1.1" id="レイヤー_1" xmlns="http://www.w3.org/2000/svg" xmlns:xlink="http://www.w3.org/1999/xlink" x="0px"
	 y="0px" viewBox="0 0 72 71" style="enable-background:new 0 0 72 71;" xml:space="preserve">
<style type="text/css">
	.st0{fill:#BF0000;}
</style>
<title>webserviceiconset-box-none-type</title>
<g>
	<polygon class="st0" points="43,32 43,31 43,30 43,29 42,29 42,28 42,27 41,27 41,26 40,26 40,25 39,25 38,25 37,25 36,25 35,25 
		34,25 33,25 32,25 31,25 30,25 30,26 30,27 30,28 30,29 30,30 30,31 30,32 30,33 30,34 30,35 30,36 30,37 30,38 31,38 32,38 33,38 
		34,38 35,38 36,38 37,38 38,38 38,37 39,37 40,37 40,36 41,36 41,35 42,35 42,34 42,33 43,33 	"/>
	<path class="st0" d="M71,31v-1v-1v-1v-1v-1h-1v-1v-1v-1h-1v-1v-1v-1h-1v-1v-1h-1v-1h-1v-1v-1h-1v-1h-1v-1h-1v-1h-1v-1v-1h-1h-1V9
		h-1V8h-1V7h-1V6h-1h-1V5h-1V4h-1h-1V3h-1h-1h-1V2h-1h-1h-1V1h-1h-1h-1h-1h-1V0h-1h-1h-1h-1h-1h-1h-1h-1h-1h-1v1h-1h-1h-1h-1h-1v1
		h-1h-1h-1v1h-1h-1v1h-1h-1v1h-1h-1v1h-1v1h-1h-1v1h-1v1h-1v1h-1v1h-1v1H9v1H8v1H7v1v1H6v1H5v1v1H4v1v1H3v1v1v1H2v1v1v1H1v1v1v1v1v1
		v1v1v1H0v1v1h1v1v1v1v1v1v1v1v1h1v1v1v1h1v1v1v1h1v1v1h1v1h1v1v1h1v1h1v1v1h1v1h1v1h1v1h1v1h1v1h1h1v1h1v1h1h1v1h1v1h1h1v1h1h1h1v1
		h1h1h1v1h1h1h1h1h1h1h1h1h1h1h1h1h1h1h1h1h1h1v-1h1h1h1v-1h1h1h1v-1h1h1v-1h1h1v-1h1v-1h1h1v-1h1v-1h1v-1h1v-1h1v-1h1v-1h1v-1h1v-1
		v-1h1v-1h1v-1v-1h1v-1v-1h1v-1v-1h1v-1v-1v-1h1v-1v-1v-1v-1v-1h1v-1v-1v-1v-1v-1v-1v-1v-1v-1v-1H71z M52,56h-1h-1h-1h-1h-1h-1v-1
		h-1v-1h-1v-1v-1h-1v-1h-1v-1v-1h-1v-1h-1v-1v-1h-1v-1h-1v-1v-1h-1h-1h-1h-1h-1h-1h-1h-1v1v1v1v1v1v1v1v1v1v1v1v1v1h-1h-1h-1h-1h-1
		h-1v-1v-1v-1v-1v-1v-1v-1v-1v-1v-1v-1v-1v-1v-1v-1v-1v-1v-1v-1v-1v-1v-1v-1v-1v-1v-1v-1v-1v-1v-1v-1v-1v-1v-1v-1v-1v-1v-1h1h1h1h1
		h1h1h1h1h1h1h1h1h1h1v1h1h1h1v1h1h1v1h1v1h1v1h1v1h1v1v1h1v1v1h1v1v1v1v1v1v1h-1v1v1v1h-1v1v1h-1v1h-1v1h-1v1h-1v1h1v1h1v1v1h1v1h1
		v1h1v1v1h1v1h1v1v1h1v1h1v1h1v1H52z"/>
</g>
</svg>
