<?xml version="1.0" encoding="utf-8"?>
<!-- Generator: Adobe Illustrator 19.2.1, SVG Export Plug-In . SVG Version: 6.00 Build 0)  -->
<svg version="1.1" id="レイヤー_1" xmlns="http://www.w3.org/2000/svg" xmlns:xlink="http://www.w3.org/1999/xlink" x="0px"
	 y="0px" viewBox="0 0 83 42" style="enable-background:new 0 0 83 42;" xml:space="preserve">
<style type="text/css">
	.st0{fill:#F60E0B;}
</style>
<g>
	<polygon class="st0" points="66,35 65,35 64,35 63,35 62,35 62,34 61,34 60,34 59,34 59,35 58,35 58,36 58,37 57,37 57,38 57,39 
		57,40 57,41 58,41 59,41 60,41 61,41 61,42 62,42 63,42 64,42 65,42 65,41 65,40 66,40 66,39 66,38 66,37 67,37 67,36 66,36 	"/>
	<polygon class="st0" points="57,9 58,9 59,9 60,9 60,8 61,8 62,8 63,8 64,8 65,8 66,8 66,7 66,6 67,6 67,5 67,4 66,4 65,4 64,4 
		63,4 62,4 61,4 60,4 59,4 58,4 57,4 56,4 55,4 54,4 53,4 52,4 51,4 50,4 49,4 48,4 47,4 46,4 45,4 44,4 43,4 42,4 41,4 40,4 40,5 
		40,6 40,7 41,7 41,8 42,8 43,8 44,8 45,8 46,8 47,8 48,8 48,9 47,9 47,10 46,10 46,11 45,11 45,12 44,12 44,13 43,13 43,14 42,14 
		42,15 41,15 40,15 40,16 39,16 39,17 38,17 38,18 37,18 37,19 36,19 36,20 35,20 35,19 34,19 34,18 34,17 33,17 33,16 32,16 32,15 
		31,15 31,14 31,13 30,13 30,12 29,12 29,11 28,11 28,10 27,10 27,9 27,8 26,8 26,7 25,7 25,6 24,6 24,5 24,4 23,4 23,3 24,3 25,3 
		26,3 27,3 28,3 29,3 30,3 31,3 32,3 32,2 32,1 32,0 31,0 30,0 29,0 28,0 27,0 26,0 25,0 24,0 23,0 22,0 21,0 20,0 19,0 18,0 17,0 
		16,0 15,0 14,0 13,0 12,0 11,0 10,0 9,0 8,0 7,0 6,0 5,0 4,0 3,0 2,0 1,0 0,0 0,1 0,2 0,3 1,3 2,3 3,3 4,3 5,3 6,3 7,3 7,4 8,4 
		9,4 10,4 10,5 11,5 11,6 12,6 12,7 13,7 13,8 13,9 14,9 14,10 15,10 15,11 16,11 16,12 17,12 17,13 18,13 18,14 19,14 19,15 19,16 
		20,16 20,17 21,17 21,18 22,18 22,19 23,19 23,20 23,21 24,21 24,22 25,22 25,23 26,23 26,24 26,25 27,25 27,26 27,27 27,28 27,29 
		27,30 27,31 27,32 27,33 27,34 26,34 26,35 26,36 25,36 24,36 24,37 23,37 22,37 21,37 20,37 19,37 18,37 18,38 18,39 18,40 18,41 
		19,41 20,41 21,41 22,41 23,41 24,41 25,41 26,41 27,41 28,41 29,41 30,41 31,41 32,41 33,41 34,41 35,41 36,41 37,41 38,41 39,41 
		40,41 41,41 42,41 43,41 44,41 45,41 46,41 47,41 48,41 48,40 48,39 48,38 48,37 47,37 46,37 45,37 44,37 43,37 42,37 42,36 41,36 
		40,36 39,36 39,35 39,34 39,33 39,32 39,31 39,30 39,29 39,28 39,27 39,26 39,25 39,24 40,24 40,23 41,23 41,22 42,22 42,21 43,21 
		43,20 44,20 44,19 45,19 45,18 46,18 47,18 47,17 48,17 48,16 49,16 49,15 50,15 50,14 51,14 52,14 52,13 53,13 53,12 54,12 54,11 
		55,11 56,11 56,10 57,10 	"/>
	<polygon class="st0" points="82,6 82,5 81,5 80,5 79,5 78,5 78,4 77,4 76,4 75,4 75,3 74,3 73,3 72,3 72,2 71,2 70,2 70,3 70,4 
		70,5 69,5 69,6 69,7 69,8 68,8 68,9 68,10 68,11 68,12 67,12 67,13 67,14 67,15 66,15 66,16 66,17 66,18 65,18 65,19 65,20 65,21 
		64,21 64,22 64,23 64,24 64,25 63,25 63,26 63,27 63,28 62,28 62,29 62,30 63,30 63,31 64,31 65,31 66,31 66,32 67,32 68,32 69,32 
		69,31 69,30 70,30 70,29 70,28 71,28 71,27 72,27 72,26 72,25 73,25 73,24 73,23 74,23 74,22 74,21 75,21 75,20 76,20 76,19 76,18 
		77,18 77,17 77,16 78,16 78,15 79,15 79,14 79,13 80,13 80,12 80,11 81,11 81,10 81,9 82,9 82,8 83,8 83,7 83,6 	"/>
</g>
</svg>
