<svg id="レイヤー_1" data-name="レイヤー 1" xmlns="http://www.w3.org/2000/svg" viewBox="0 0 66.4 66.42"><defs><style>.cls-1{fill:#3f729b;}</style></defs><title>webserviceiconset-box-none-type</title><path class="cls-1" d="M47.26,24.81H66.4V53.07c0,7-6.43,13.34-13.41,13.34H14c-7,0-14-6.36-14-13.34V24.81H19.68c-1.92,1.6-3.05,5.94-3.05,9.53a16.84,16.84,0,0,0,33.68,0C50.31,30.79,49.18,26.42,47.26,24.81Zm-1.09,9.4a12.7,12.7,0,1,1-12.7-12.7A12.71,12.71,0,0,1,46.17,34.22Zm-2.55,0A10.15,10.15,0,1,0,33.47,44.37,10.15,10.15,0,0,0,43.62,34.22Zm-22-11.8H0V14a14.05,14.05,0,0,1,7.2-12V17.61H9.6V.81c.67-.23,1.6-.46,1.6-.46V17.61h2.4V0c.73,0,1.6,0,1.6,0v17.6h2.4V0H53c7,0,13.41,7,13.41,14v8.38H45.3a16,16,0,0,0-11.82-4.86A16,16,0,0,0,21.65,22.42ZM60,7.77a2.16,2.16,0,0,0-2.16-2.16H50.16A2.16,2.16,0,0,0,48,7.77v7.69a2.16,2.16,0,0,0,2.16,2.16h7.69A2.16,2.16,0,0,0,60,15.46Z"/></svg>