<svg id="レイヤー_1" data-name="レイヤー 1" xmlns="http://www.w3.org/2000/svg" viewBox="0 0 75.46 72.02"><defs><style>.cls-1{fill:#00c300;}</style></defs><title>webserviceiconset-box-none-type</title><path class="cls-1" d="M64.53,52.51A106.24,106.24,0,0,1,41.64,69.32c-2.91,1.54-5.37,3.16-6.56,2.58-1.8-.88.77-7.33-.07-9.16a4.33,4.33,0,0,0-2.71-2.41c-.63-.23-2.42-.43-3.42-.63h0C12.31,57.31,0,44.81,0,30.38,0,13.49,16.89,0,37.73,0S75.46,13.8,75.46,30.7C75.46,38.61,70.61,47.08,64.53,52.51Zm-40.8-16.8h-5.6v-12c0-3.27-4-3-4,0v14.4a1.44,1.44,0,0,0,1.6,1.6h8C26.79,39.71,26.79,35.71,23.73,35.71Zm4-12v15.2c0,2.27,4,2.33,4,0V23.71A2,2,0,1,0,27.73,23.71Zm16.8,0v9.38l-6.4-10.18c-1.27-2.13-4-2-4,.87V38.91c0,2.5,4,2.2,4,0v-8l6.57,9a1.62,1.62,0,0,0,1.37.77,4.1,4.1,0,0,0,.88-.09,2.18,2.18,0,0,0,1.58-1.79V23.71A2,2,0,1,0,44.53,23.71Zm15.2,8.8c3.1,0,3.07-4,0-4h-4.8v-3.2h4.8a2,2,0,1,0,0-4H52.56a1.7,1.7,0,0,0-1.63,1.6V38.29c0,.92.59,1.42,1.63,1.42h7.17c3.1,0,3.07-4,0-4h-4.8v-3.2Z"/></svg>