<svg id="レイヤー_1" data-name="レイヤー 1" xmlns="http://www.w3.org/2000/svg" viewBox="0 0 82.5 41.64"><defs><style>.cls-1{fill:#f60e0b;}</style></defs><title>webserviceiconset-box-none-type</title><path class="cls-1" d="M31.25,1.7s-1.7,0-3.74.14c-2.46.14-6,.38-6,.38C23.81,5.84,35.35,20.5,35.35,20.5c.39-.54,2.39-2.43,7.87-6.75s5.63-6.12,5.63-6.12L40.67,6.49,40.21,4H67l-1.7,2.77s-6.41.89-7.87,1.51S47.77,15,44.84,17.66s-6.64,5.7-6.64,7.63.15,11.18.15,11.18c3.24.08,9.26.61,9.26.61l-.39,3c-11.88-.39-29.17.37-29.17.37l.46-3.14c5.4.23,8.49-.92,8.49-2.93s.08-10,.08-10C25.08,19.74,9.65,2.77,9.65,2.77,9,2.77,0,2.07,0,2.07L.15,0H31.64ZM62.59,29.45l5.25,1.62,14.66-25L70.85,2.43ZM57,39.63a31.23,31.23,0,0,1,6.79,2l2.47-5.79A49,49,0,0,1,59.5,34Z"/></svg>