<?xml version="1.0" encoding="utf-8"?>
<!-- Generator: Adobe Illustrator 19.2.1, SVG Export Plug-In . SVG Version: 6.00 Build 0)  -->
<svg version="1.1" id="レイヤー_1" xmlns="http://www.w3.org/2000/svg" xmlns:xlink="http://www.w3.org/1999/xlink" x="0px"
	 y="0px" viewBox="0 0 750 1334" style="enable-background:new 0 0 750 1334;" xml:space="preserve">
<style type="text/css">
	.st0{fill:#0A6800;}
	.st1{fill:#0A8400;}
	.st2{fill:#FFFFFF;}
	.st3{fill:#353535;}
</style>
<polyline class="st0" points="306.3,1228 306.3,1329.2 549.9,1329.2 549.9,1221.5 428,1221.5 "/>
<polyline class="st0" points="1084.2,1228 1084.2,1329.2 1327.8,1329.2 1327.8,1221.5 1205.9,1221.5 "/>
<title>trex</title>
<path class="st1" d="M-166.9,285.9V82h-235.7V4.8h-364.8v1089.3h-121.4v120h242.9v115.2h243.6v-121.7h-121.9V1154h76.2v-67.9h98.8
	V750.9h-53.1v-84h-68.4V446.1h258.8V324.4h-236.5v-38.5H-166.9z M-592.5,202.5v22.7h-7.8v7.9h-22.8v-7.9h-7.6v-22.7H-592.5z"/>
<rect x="-683.9" y="202.5" class="st2" width="144.4" height="118.6"/>
<rect x="-651.8" y="221.7" class="st3" width="80.3" height="80.3"/>
<path class="st1" d="M1650.8,299.8V95.9h-235.7V18.7h-364.8V1108H928.9v120h296.3v101.3h243.6v-107.8h-175.3v-53.6h76.2V1100h98.8
	V764.8h-53.1v-84H1347V460h258.8V338.3h-236.5v-38.5H1650.8z M1225.2,216.4v22.7h-7.8v7.9h-22.8v-7.9h-7.6v-22.7H1225.2z"/>
<rect x="1133.8" y="216.4" class="st2" width="144.4" height="118.6"/>
<rect x="1165.9" y="235.6" class="st3" width="80.3" height="80.3"/>
<path class="st1" d="M731.9,299.8V95.9H496.2V18.7H131.4V1108H10v120h155.3v101.3h243.6v-107.8h-34.4v-53.6h76.2V1100h98.8V764.8
	h-53.1v-84h-68.4V460h258.8V338.3H450.4v-38.5H731.9z M306.3,216.4v22.7h-7.9v7.9h-22.8v-7.9H268v-22.7H306.3z"/>
<rect x="214.9" y="216.4" class="st2" width="144.4" height="118.6"/>
<rect x="247" y="235.6" class="st3" width="80.3" height="80.3"/>
</svg>
